<?xml version="1.0" encoding="UTF-8" standalone="no"?>
<!-- Created with Inkscape (http://www.inkscape.org/) -->

<svg
   xmlns:dc="http://purl.org/dc/elements/1.1/"
   xmlns:cc="http://creativecommons.org/ns#"
   xmlns:rdf="http://www.w3.org/1999/02/22-rdf-syntax-ns#"
   xmlns:svg="http://www.w3.org/2000/svg"
   xmlns="http://www.w3.org/2000/svg"
   xmlns:sodipodi="http://sodipodi.sourceforge.net/DTD/sodipodi-0.dtd"
   xmlns:inkscape="http://www.inkscape.org/namespaces/inkscape"
   width="0.27850488mm"
   height="0.15173669mm"
   viewBox="0 0 0.98682831 0.53764969"
   id="svg8202"
   version="1.1"
   inkscape:version="0.91 r13725"
   sodipodi:docname="car_skaliert.svg">
  <defs
     id="defs8204" />
  <sodipodi:namedview
     id="base"
     pagecolor="#ffffff"
     bordercolor="#666666"
     borderopacity="1.0"
     inkscape:pageopacity="0.0"
     inkscape:pageshadow="2"
     inkscape:zoom="256"
     inkscape:cx="-1.5022293"
     inkscape:cy="0.22165604"
     inkscape:document-units="px"
     inkscape:current-layer="layer1"
     showgrid="false"
     fit-margin-top="0"
     fit-margin-left="0"
     fit-margin-right="0"
     fit-margin-bottom="0"
     showborder="true"
     inkscape:window-width="2560"
     inkscape:window-height="1363"
     inkscape:window-x="-9"
     inkscape:window-y="-9"
     inkscape:window-maximized="1" />
  <metadata
     id="metadata8207">
    <rdf:RDF>
      <cc:Work
         rdf:about="">
        <dc:format>image/svg+xml</dc:format>
        <dc:type
           rdf:resource="http://purl.org/dc/dcmitype/StillImage" />
        <dc:title></dc:title>
      </cc:Work>
    </rdf:RDF>
  </metadata>
  <g
     inkscape:label="Ebene 1"
     inkscape:groupmode="layer"
     id="layer1"
     transform="translate(1217.6363,-54.950523)">
    <g
       transform="matrix(0.0042105,0,0,0.0042105,-1217.6477,51.991669)"
       id="layer1-0"
       inkscape:label="Ebene 1">
      <a
         id="a3509"
         transform="translate(-6.2660871,693.69428)">
        <path
           inkscape:connector-curvature="0"
           d="m 159.31999,62.002335 50.57076,0 0,21.402607 -50.57076,0 z m -50.1933,73.983035 c -2.28702,-1.20198 -4.0947,-2.7175 -9.30642,-7.80233 -1.66675,-1.62618 -3.314561,-3.11614 -3.661801,-3.31104 -0.50926,-0.28584 -3.12196,-0.38123 -13.51079,-0.49329 -7.0837,-0.0764 -12.91292,-0.062 -12.95384,0.0319 -0.0409,0.094 -0.49548,0.0823 -1.01015,-0.026 -0.51467,-0.10823 -4.458673,-0.25925 -8.764453,-0.33558 -9.91421,-0.17577 -10.99066,-0.36031 -17.40436,-2.9837 -6.87212,-2.8109 -11.506703,-5.83854 -16.164253,-10.55965 -1.51144,-1.53207 -2.84429,-2.78558 -2.96188,-2.78558 -0.11759,0 -0.2138,-0.13421 -0.2138,-0.29824 0,-0.16404 -0.61509,-1.10158 -1.36686,-2.08344 -4.92881,-6.437298 -10.36569,-18.174278 -12.05726,-26.028858 -0.14957,-0.69448 -0.37914,-1.39621 -0.51017,-1.5594 -0.13102,-0.1632 -0.25078,-2.3224 -0.26612,-4.79823 -0.0265,-4.28071 0.0104,-4.64396 0.752,-7.4057 2.26575,-8.43721 7.12922,-19.1212 11.26591,-24.74874 8.20571,-11.16302 19.257043,-17.31062 35.138723,-19.54686 7.60558,-1.07092 18.579893,-1.16202 31.507653,-0.26157 5.97139,0.41592 6.57571,0.42013 7.34957,0.0511 0.88724,-0.4231 9.830411,-8.0602 11.776681,-10.0568 1.50409,-1.54299 2.093,-1.8254 4.01737,-1.92648 2.28733,-0.12015 2.90365,0.30789 2.7404,1.90326 -0.0661,0.64585 -0.70448,2.67646 -1.41866,4.51247 -2.12642,5.46662 -1.90258,5.9222 2.93512,5.97399 1.63004,0.0174 6.54344,-0.0584 10.91867,-0.1686 4.37522,-0.11019 15.34169,-0.36497 24.36993,-0.56619 9.02824,-0.20123 20.83437,-0.4849 26.23586,-0.6304 6.79134,-0.18293 12.82882,-0.18426 19.57171,-0.004 13.25342,0.3537 18.43852,0.92686 25.66072,2.83652 4.31723,1.14155 6.03067,1.76979 9.59645,3.51856 3.07949,1.51028 4.88603,2.83752 5.55584,4.08179 0.39521,0.73417 0.65694,0.9384 1.20327,0.93893 0.92963,9.1e-4 1.49708,0.94814 2.49658,4.16756 0.43122,1.38896 0.867,2.63903 0.9684,2.77792 0.10139,0.1389 0.19524,0.82075 0.20854,1.51523 0.0133,0.69448 0.20289,2.9105 0.4213,4.92449 0.68613,6.32686 0.88062,9.73014 1.04631,18.30902 0.30192,15.63216 -0.82736,38.035098 -2.30256,45.678878 -0.98894,5.12422 -4.86947,8.80076 -12.21219,11.57026 -3.03713,1.14553 -10.68971,3.17366 -13.16912,3.49015 -0.90283,0.11524 -2.7211,0.38106 -4.04061,0.59069 -5.72517,0.9096 -8.40865,1.04694 -20.45559,1.04694 -7.26655,0 -19.56199,-0.24185 -31.18846,-0.61348 -22.76093,-0.72752 -47.43373,-0.88066 -48.803,-0.3029 -0.45141,0.19047 -0.82075,0.42689 -0.82075,0.52538 0,0.0985 0.51573,1.47682 1.14607,3.06296 1.77988,4.47879 2.47192,6.9299 2.13453,7.56031 -0.64715,1.20921 -2.41642,1.30018 -4.45451,0.22903 z m 50.71247,-19.4264 9.80645,0 1.02486,-0.9259 c 0.56367,-0.50924 1.32802,-1.44679 1.69855,-2.08344 0.37054,-0.63665 1.04611,-1.51189 1.50126,-1.94498 0.45515,-0.43309 0.82755,-0.91092 0.82755,-1.06184 0,-0.15093 -0.42616,-0.36479 -0.94702,-0.47526 -0.52086,-0.11046 -9.35654,-0.20085 -19.63484,-0.20085 -32.47012,0 -41.30767,0.31938 -42.31165,1.52911 -0.16658,0.20071 -0.48783,0.36538 -0.71389,0.36592 -0.66978,0.002 -11.23641,4.27529 -11.64897,4.71144 -0.34574,0.36551 1.84581,0.38673 25.10622,0.24313 14.01677,-0.0865 29.89793,-0.15733 35.29148,-0.15733 z M 42.623556,114.34926 c 0.002,-0.24307 -1.50401,-1.90584 -3.34613,-3.69505 -1.84212,-1.78921 -5.06062,-4.9173 -7.152233,-6.95133 -3.76491,-3.66125 -5.96031,-5.389598 -7.2606,-5.715948 -0.57497,-0.14431 -0.71091,-0.0661 -0.94225,0.54241 -0.3487,0.91715 -0.14619,1.675128 0.82447,3.085938 1.8614,2.70544 7.92505,8.35862 11.288123,10.52398 3.33775,2.14905 6.58123,3.237 6.58862,2.21 z m 45.363953,-1.10062 c 1.73573,-0.53379 6.37202,-2.24504 7.79215,-2.87608 1.22866,-0.54596 8.824821,-3.49408 12.374371,-4.80259 1.80565,-0.66563 3.47429,-1.39169 3.7081,-1.61348 0.38335,-0.36364 0.45504,-1.99037 0.72998,-16.565678 0.29755,-15.77393 0.17251,-41.24442 -0.21572,-43.94164 l -0.18175,-1.26269 -2.78087,-1.38896 c -3.72301,-1.85953 -14.669851,-6.29397 -19.384001,-7.85224 -2.76814,-0.91501 -6.02454,-1.23762 -7.30855,-0.72404 -3.05488,1.22188 -7.95556,6.92223 -10.73839,12.49063 -2.23513,4.47247 -3.94693,9.71459 -4.90669,15.02601 -0.43773,2.42244 -0.54558,4.28661 -0.65016,11.23795 -0.17799,11.82961 0.36829,16.56124 2.70203,23.40369 2.30313,6.752728 5.26699,11.635668 9.42166,15.522168 4.23348,3.96021 5.72442,4.48894 9.43784,3.34695 z m 150.519011,-9.58789 c 0.31241,-1.18223 0.44589,-8.712528 0.17816,-10.051188 -0.20823,-1.04114 -0.74232,-1.0038 -1.09896,0.0768 -0.71894,2.17839 -0.85904,8.981628 -0.22053,10.708118 0.31738,0.85816 0.80318,0.54583 1.14133,-0.73378 z M 205.08991,81.469682 c 0.12625,-0.12626 0.39607,-0.83439 0.59959,-1.57363 0.50144,-1.82137 0.75964,-12.50353 0.33954,-14.04744 -0.40041,-1.47157 -1.04946,-2.07012 -2.24479,-2.07012 -2.75229,0 -41.96256,7.93014 -43.30132,8.75754 -0.14156,0.0875 -0.098,0.23288 0.10347,0.34507 0.52649,0.29324 5.42941,1.42063 13.48008,3.09966 0.97227,0.20277 5.33755,1.12406 9.70062,2.04729 4.36306,0.92324 8.56782,1.78057 9.34391,1.90519 0.77608,0.12461 2.19618,0.40664 3.15576,0.62673 5.37484,1.23273 8.208,1.52485 8.82314,0.90971 z m 33.62943,-28.05026 c 0.0875,-0.14165 0.15718,-2.67019 0.15475,-5.61897 -0.005,-5.52152 -0.2909,-7.63427 -1.03466,-7.63427 -0.59788,0 -0.82634,1.38338 -0.83411,5.05076 -0.011,5.19492 0.89453,9.52844 1.71402,8.20248 z M 30.624813,43.019472 c 6.038413,-5.76859 10.852063,-10.59317 11.363613,-11.38942 0.33309,-0.51848 0.3796,-0.78234 0.17411,-0.98783 -0.39831,-0.39831 -5.33873,2.12452 -8.38099,4.27975 -3.210453,2.27438 -8.278273,7.32703 -9.172473,9.145 -0.81074,1.64829 -0.82508,1.91336 -0.16229,3.00048 l 0.51234,0.84035 0.81254,-0.51414 c 0.4469,-0.28277 2.63081,-2.25115 4.85315,-4.37419 z m 138.390907,-7.51426 c 2.36123,-0.12597 4.54908,-0.32462 4.86189,-0.44145 0.55352,-0.20674 0.52852,-0.26974 -0.93373,-2.35323 -0.82636,-1.17744 -1.93461,-2.63208 -2.46278,-3.23254 l -0.9603,-1.09174 -6.06092,-0.26237 c -10.30319,-0.44602 -57.59436,0.082 -62.31378,0.69575 -0.65976,0.0858 -1.19956,0.24314 -1.19956,0.34965 0,0.32731 2.783,1.68763 5.17703,2.53051 1.25006,0.44012 4.29669,1.35741 6.77028,2.03844 6.43647,1.77209 8.1771,1.86551 36.28747,1.94767 9.09769,0.0266 18.47317,-0.0547 20.8344,-0.18069 z"
           style="fill:#000000"
           id="rect3507-0" />
      </a>
    </g>
  </g>
</svg>
