<?xml version="1.0" encoding="UTF-8" standalone="no"?>
<svg
   xmlns:dc="http://purl.org/dc/elements/1.1/"
   xmlns:cc="http://creativecommons.org/ns#"
   xmlns:rdf="http://www.w3.org/1999/02/22-rdf-syntax-ns#"
   xmlns:svg="http://www.w3.org/2000/svg"
   xmlns="http://www.w3.org/2000/svg"
   xmlns:sodipodi="http://sodipodi.sourceforge.net/DTD/sodipodi-0.dtd"
   xmlns:inkscape="http://www.inkscape.org/namespaces/inkscape"
   clip-rule="evenodd"
   stroke-miterlimit="10"
   viewBox="0 0 246.61 246.61"
   id="svg2"
   version="1.1"
   inkscape:version="0.91 r13725"
   sodipodi:docname="nuerburgring-tempolimit-250kmh.svg">
  <metadata
     id="metadata16">
    <rdf:RDF>
      <cc:Work
         rdf:about="">
        <dc:format>image/svg+xml</dc:format>
        <dc:type
           rdf:resource="http://purl.org/dc/dcmitype/StillImage" />
        <dc:title></dc:title>
      </cc:Work>
    </rdf:RDF>
  </metadata>
  <sodipodi:namedview
     pagecolor="#ffffff"
     bordercolor="#666666"
     borderopacity="1"
     objecttolerance="10"
     gridtolerance="10"
     guidetolerance="10"
     inkscape:pageopacity="0"
     inkscape:pageshadow="2"
     inkscape:window-width="739"
     inkscape:window-height="480"
     id="namedview14"
     showgrid="false"
     inkscape:zoom="0.9569766"
     inkscape:cx="123.305"
     inkscape:cy="123.305"
     inkscape:window-x="0"
     inkscape:window-y="0"
     inkscape:window-maximized="0"
     inkscape:current-layer="svg2" />
  <desc
     id="desc4">SVG</desc>
  <defs
     id="defs6" />
  <g
     id="g8">
    <rect
       x="0.00"
       y="0.00"
       width="246.61"
       height="246.61"
       fill="#FFFFFF"
       id="Rect 3" />
    <ellipse
       cx="123.22"
       cy="123.13"
       rx="110.28"
       ry="110.28"
       fill="#E6E6E6"
       id="Oval 7" />
    <ellipse
       cx="123.31"
       cy="123.31"
       rx="99.19"
       ry="99.19"
       stroke="#FF0000"
       stroke-width="24.56"
       fill="none"
       id="Oval 2" />
    <path
       d="M 54.65 160.54 L 54.65 150.78 L 83.04 115.27 C 84.13 113.88 84.85 112.60 85.18 111.44 C 85.51 110.27 85.68 109.15 85.68 108.05 C 85.68 105.53 84.78 103.18 82.99 101.00 C 81.19 98.83 78.75 97.74 75.67 97.74 C 72.84 97.74 70.43 98.68 68.42 100.55 C 66.41 102.43 65.29 104.99 65.06 108.25 L 54.65 108.25 C 54.68 102.37 56.69 97.42 60.68 93.38 C 64.66 89.35 69.39 87.33 74.87 87.33 C 80.91 87.33 85.95 89.36 89.99 93.43 C 94.02 97.50 96.04 102.40 96.04 108.15 C 96.04 113.06 94.59 117.31 91.70 120.90 L 68.34 150.18 L 96.04 150.18 L 96.04 160.54 Z M 105.45 127.22 L 105.45 87.98 L 144.10 87.98 L 144.10 98.39 L 115.26 98.39 L 115.26 114.77 C 118.58 112.12 122.45 110.79 126.87 110.79 C 129.62 110.79 132.14 111.32 134.41 112.38 C 136.69 113.44 138.49 114.69 139.81 116.12 C 141.81 118.28 143.26 120.62 144.17 123.17 C 145.09 125.71 145.54 129.98 145.54 135.99 C 145.54 140.87 145.19 144.50 144.47 146.87 C 143.76 149.25 142.62 151.43 141.06 153.42 C 139.57 155.31 137.47 157.07 134.78 158.70 C 132.09 160.33 128.94 161.14 125.32 161.14 C 120.64 161.14 116.12 159.70 111.77 156.81 C 107.43 153.92 104.87 149.09 104.10 142.31 L 114.51 142.31 C 115.74 147.96 119.21 150.78 124.92 150.78 C 130.00 150.78 132.97 149.04 133.84 145.55 C 134.70 142.07 135.13 138.61 135.13 135.19 C 135.13 131.18 134.45 127.84 133.09 125.18 C 131.73 122.53 128.91 121.20 124.62 121.20 C 120.61 121.20 117.49 123.21 115.26 127.22 Z M 183.99 139.68 L 183.99 108.85 C 183.99 105.36 183.05 102.64 181.18 100.68 C 179.30 98.72 176.84 97.74 173.78 97.74 C 170.69 97.74 168.22 98.72 166.36 100.68 C 164.50 102.64 163.57 105.36 163.57 108.85 L 163.57 139.68 C 163.57 143.19 164.50 145.93 166.36 147.87 C 168.22 149.81 170.69 150.78 173.78 150.78 C 176.84 150.78 179.30 149.81 181.18 147.87 C 183.05 145.93 183.99 143.19 183.99 139.68 Z M 153.16 140.27 L 153.16 108.25 C 153.16 101.57 155.25 96.42 159.44 92.78 C 163.62 89.15 168.40 87.33 173.78 87.33 C 179.13 87.33 183.90 89.15 188.10 92.78 C 192.30 96.42 194.40 101.57 194.40 108.25 L 194.40 140.27 C 194.40 146.95 192.30 152.09 188.10 155.71 C 183.90 159.33 179.13 161.14 173.78 161.14 C 168.40 161.14 163.62 159.33 159.44 155.71 C 155.25 152.09 153.16 146.95 153.16 140.27 Z M 198.19 160.49 "
       fill="#000000"
       id="Text 5" />
  </g>
</svg>
