<?xml version="1.0" encoding="UTF-8" standalone="no"?>
<svg
   xmlns:dc="http://purl.org/dc/elements/1.1/"
   xmlns:cc="http://creativecommons.org/ns#"
   xmlns:rdf="http://www.w3.org/1999/02/22-rdf-syntax-ns#"
   xmlns:svg="http://www.w3.org/2000/svg"
   xmlns="http://www.w3.org/2000/svg"
   xmlns:sodipodi="http://sodipodi.sourceforge.net/DTD/sodipodi-0.dtd"
   xmlns:inkscape="http://www.inkscape.org/namespaces/inkscape"
   clip-rule="evenodd"
   stroke-miterlimit="10"
   viewBox="0 0 246.61 246.61"
   id="svg25"
   version="1.1"
   inkscape:version="0.91 r13725"
   sodipodi:docname="nuerburgrung-tempolimit-200kmh.svg">
  <metadata
     id="metadata39">
    <rdf:RDF>
      <cc:Work
         rdf:about="">
        <dc:format>image/svg+xml</dc:format>
        <dc:type
           rdf:resource="http://purl.org/dc/dcmitype/StillImage" />
        <dc:title></dc:title>
      </cc:Work>
    </rdf:RDF>
  </metadata>
  <sodipodi:namedview
     pagecolor="#ffffff"
     bordercolor="#666666"
     borderopacity="1"
     objecttolerance="10"
     gridtolerance="10"
     guidetolerance="10"
     inkscape:pageopacity="0"
     inkscape:pageshadow="2"
     inkscape:window-width="640"
     inkscape:window-height="480"
     id="namedview37"
     showgrid="false"
     inkscape:zoom="1.1177188"
     inkscape:cx="123.305"
     inkscape:cy="123.305"
     inkscape:window-x="0"
     inkscape:window-y="0"
     inkscape:window-maximized="0"
     inkscape:current-layer="svg25" />
  <desc
     id="desc27">SVG</desc>
  <defs
     id="defs29" />
  <g
     id="g31">
    <rect
       x="0.00"
       y="0.00"
       width="246.61"
       height="246.61"
       fill="#FFFFFF"
       id="Rect 3" />
    <ellipse
       cx="123.29"
       cy="123.29"
       rx="110.28"
       ry="110.28"
       fill="#E6E6E6"
       id="Oval 7" />
    <ellipse
       cx="123.31"
       cy="123.31"
       rx="99.19"
       ry="99.19"
       stroke="#FF0000"
       stroke-width="24.56"
       fill="none"
       id="Oval 2" />
    <path
       d="M 54.65 160.54 L 54.65 150.78 L 83.04 115.27 C 84.13 113.88 84.85 112.60 85.18 111.44 C 85.51 110.27 85.68 109.15 85.68 108.05 C 85.68 105.53 84.78 103.18 82.99 101.00 C 81.19 98.83 78.75 97.74 75.67 97.74 C 72.84 97.74 70.43 98.68 68.42 100.55 C 66.41 102.43 65.29 104.99 65.06 108.25 L 54.65 108.25 C 54.68 102.37 56.69 97.42 60.68 93.38 C 64.66 89.35 69.39 87.33 74.87 87.33 C 80.91 87.33 85.95 89.36 89.99 93.43 C 94.02 97.50 96.04 102.40 96.04 108.15 C 96.04 113.06 94.59 117.31 91.70 120.90 L 68.34 150.18 L 96.04 150.18 L 96.04 160.54 Z M 135.03 139.68 L 135.03 108.85 C 135.03 105.36 134.10 102.64 132.22 100.68 C 130.34 98.72 127.88 97.74 124.82 97.74 C 121.74 97.74 119.26 98.72 117.40 100.68 C 115.54 102.64 114.61 105.36 114.61 108.85 L 114.61 139.68 C 114.61 143.19 115.54 145.93 117.40 147.87 C 119.26 149.81 121.74 150.78 124.82 150.78 C 127.88 150.78 130.34 149.81 132.22 147.87 C 134.10 145.93 135.03 143.19 135.03 139.68 Z M 104.20 140.27 L 104.20 108.25 C 104.20 101.57 106.30 96.42 110.48 92.78 C 114.66 89.15 119.44 87.33 124.82 87.33 C 130.17 87.33 134.94 89.15 139.14 92.78 C 143.34 96.42 145.44 101.57 145.44 108.25 L 145.44 140.27 C 145.44 146.95 143.34 152.09 139.14 155.71 C 134.94 159.33 130.17 161.14 124.82 161.14 C 119.44 161.14 114.66 159.33 110.48 155.71 C 106.30 152.09 104.20 146.95 104.20 140.27 Z M 183.99 139.68 L 183.99 108.85 C 183.99 105.36 183.05 102.64 181.18 100.68 C 179.30 98.72 176.84 97.74 173.78 97.74 C 170.69 97.74 168.22 98.72 166.36 100.68 C 164.50 102.64 163.57 105.36 163.57 108.85 L 163.57 139.68 C 163.57 143.19 164.50 145.93 166.36 147.87 C 168.22 149.81 170.69 150.78 173.78 150.78 C 176.84 150.78 179.30 149.81 181.18 147.87 C 183.05 145.93 183.99 143.19 183.99 139.68 Z M 153.16 140.27 L 153.16 108.25 C 153.16 101.57 155.25 96.42 159.44 92.78 C 163.62 89.15 168.40 87.33 173.78 87.33 C 179.13 87.33 183.90 89.15 188.10 92.78 C 192.30 96.42 194.40 101.57 194.40 108.25 L 194.40 140.27 C 194.40 146.95 192.30 152.09 188.10 155.71 C 183.90 159.33 179.13 161.14 173.78 161.14 C 168.40 161.14 163.62 159.33 159.44 155.71 C 155.25 152.09 153.16 146.95 153.16 140.27 Z M 198.19 160.49 "
       fill="#000000"
       id="Text 5" />
  </g>
</svg>
